# xmcd
#
# Track frame offsets:
#	150
#	15829
#	34968
#	51145
#	69522
#	93084
#	112025
#	130792
#	156107
#	176777
#	197289
#	218589
#
# Disc length: 3110 seconds
#
# Revision: 1
# Processed by: cddbd v1.5.2PL0 Copyright (c) Steve Scherf et al.
# Submitted via: audiograbber 1.83.01
#
DISCID=950c240c
DTITLE=Various Artist - Street Beats V07 S06 CD2
DYEAR=1900
DGENRE=R&B
TTITLE0=Blackstreet - Ooh Girl
TTITLE1=Jennifer Lopez - All I Have Ft LL Cool J
TTITLE2=GZA - Knock Knock
TTITLE3=Snoop Dogg - Beautiful Ft Pharrell and Uncle Charlie Wilson
TTITLE4=DJ Spinna Ft Vinia Mojica - Idols
TTITLE5=K-Os - Superstar Ft Zero
TTITLE6=Natalie Williams - Yours Truly
TTITLE7=King Britt Ft Ivana Santilli - Superstar
TTITLE8=Opus Akoban - Primadonna
TTITLE9=Incognito - Can't Get You Out Of My Head
TTITLE10=The Ends - Are You Really From The Ends
TTITLE11=Elephant Man - Give Her It Good
EXTD=
EXTT0=
EXTT1=
EXTT2=
EXTT3=
EXTT4=
EXTT5=
EXTT6=
EXTT7=
EXTT8=
EXTT9=
EXTT10=
EXTT11=
PLAYORDER=
